<svg width="21" height="20" viewBox="0 0 21 20" fill="none" xmlns="http://www.w3.org/2000/svg">
<g clipPath="url(#clip0_8319_10319)">
<path d="M10.1802 20C15.6918 20 20.1597 15.5228 20.1597 10C20.1597 4.47715 15.6918 0 10.1802 0C4.66867 0 0.200684 4.47715 0.200684 10C0.200684 15.5228 4.66867 20 10.1802 20Z" fill="#009393"/>
<path fillRule="evenodd" clipRule="evenodd" d="M10.1924 10.7147C11.9087 10.7147 13.343 10.424 13.6935 10.0355C13.3959 9.70598 12.3193 9.44648 10.9521 9.37548V10.1962C10.7074 10.209 10.4529 10.2152 10.1922 10.2152C9.93148 10.2152 9.67701 10.209 9.43176 10.1962V9.37548C8.06506 9.44648 6.98802 9.70598 6.69038 10.0355C7.04141 10.424 8.47597 10.7147 10.1922 10.7147H10.1924ZM13.2417 6.85148V7.98173H10.9521V8.76548C12.5603 8.84923 13.7671 9.19373 13.7761 9.60598V10.4655C13.7671 10.8777 12.5603 11.2215 10.9521 11.3055V13.229H9.43201V11.3055C7.82381 11.2217 6.61753 10.8777 6.60855 10.4655V9.60598C6.61753 9.19373 7.82381 8.84923 9.43201 8.76548V7.98173H7.14246V6.85148H13.2419H13.2417ZM6.24205 5.05273H14.2796C14.4717 5.05273 14.6486 5.15398 14.7444 5.31848L17.0858 9.34748C17.2071 9.55648 17.1711 9.82023 16.998 9.98948L10.5527 16.294C10.3436 16.4982 10.0078 16.4982 9.79926 16.294L3.36196 9.99798C3.18507 9.82448 3.15164 9.55323 3.28212 9.34323L5.78524 5.30598C5.88279 5.14898 6.05593 5.05298 6.2423 5.05298L6.24205 5.05273Z" fill="white"/>
</g>
<defs>
<clipPath id="clip0_8319_10319">
<rect width="19.9591" height="20" fill="white" transform="translate(0.200684)"/>
</clipPath>
</defs>
</svg>
